<svg xmlns="http://www.w3.org/2000/svg" viewBox="0 0 160 80" fill="none">
  <path d="M48 18l8 4.5v9L48 36l-8-4.5v-9L48 18z" fill="#F5B800"/>
  <path d="M64 18l8 4.5v9l-8 4.5-8-4.5v-9l8-4.5z" fill="#F5B800"/>
  <path d="M56 28.5l8 4.5v9l-8 4.5-8-4.5v-9l8-4.5z" fill="#E5A800"/>
  <path d="M40 28.5l8 4.5v9l-8 4.5-8-4.5v-9l8-4.5z" fill="#E5A800"/>
  <path d="M48 39l8 4.5v9L48 57l-8-4.5v-9L48 39z" fill="#F5B800"/>
  <text x="80" y="52" fill="#1E1E1E" font-family="Arial, sans-serif" font-size="11" font-weight="700" letter-spacing="0.5">PROVIDUSBANK</text>
</svg>
